<?xml version="1.0" encoding="UTF-8"?>
<svg id="Layer_1" data-name="Layer 1" xmlns="http://www.w3.org/2000/svg" viewBox="0 0 1160.51 899.65">
  <defs>
    <style>
      .cls-1 {
        fill: none;
      }

      .cls-1, .cls-2 {
        stroke: #000;
        stroke-miterlimit: 10;
      }

      .cls-3, .cls-4, .cls-5 {
        stroke-width: 0px;
      }

      .cls-4, .cls-2 {
        fill: #b3b3b3;
      }

      .cls-5 {
        fill: #fff;
      }
    </style>
  </defs>
  <g>
    <rect class="cls-4" x="30.27" y="30.38" width="1039" height="839"/>
    <path class="cls-3" d="m1068.77,30.88v838H30.77V30.88h1038m1-1H29.77v840h1040V29.88h0Z"/>
  </g>
  <g>
    <rect class="cls-5" x="49.27" y="50.38" width="999" height="799"/>
    <path class="cls-3" d="m1047.77,50.88v798H49.77V50.88h998m1-1H48.77v800h1000V49.88h0Z"/>
  </g>
  <line class="cls-1" x1="6.27" y1="30.05" x2="6.27" y2="869.52"/>
  <line class="cls-1" x1="6.27" y1="30.38" x2="11.27" y2="36.38"/>
  <line class="cls-1" x1="6.34" y1="30.38" x2="1.34" y2="36.38"/>
  <line class="cls-1" x1="1068.89" y1="889.99" x2="1062.89" y2="894.99"/>
  <line class="cls-1" x1="1068.89" y1="890.06" x2="1062.89" y2="885.06"/>
  <line class="cls-1" x1="29.77" y1="869.39" y2="869.39"/>
  <line class="cls-1" x1="30.97" y1="30.37" x2="1.2" y2="30.37"/>
  <line class="cls-1" x1="30.27" y1="869.85" x2="30.27" y2="899.61"/>
  <line class="cls-1" x1="1069.26" y1="869.88" x2="1069.26" y2="899.65"/>
  <line class="cls-1" x1="30.27" y1="890.03" x2="1069.77" y2="890.03"/>
  <line class="cls-1" x1="6.3" y1="869.52" x2="1.3" y2="863.52"/>
  <line class="cls-1" x1="6.23" y1="869.52" x2="11.23" y2="863.52"/>
  <line class="cls-1" x1="30.27" y1="890.06" x2="36.27" y2="885.06"/>
  <line class="cls-1" x1="30.27" y1="889.99" x2="36.27" y2="894.99"/>
  <rect class="cls-1" x="49.26" y="30.48" width="100" height="19.9"/>
  <rect class="cls-5" x="149.66" y="27.28" width="798.54" height="28.15"/>
  <rect class="cls-1" x="948.26" y="30.48" width="100" height="19.9"/>
  <rect class="cls-1" x="943.39" y="38.12" width="4.87" height="4.87"/>
  <rect class="cls-1" x="149.26" y="37.99" width="4.87" height="4.87"/>
  <line class="cls-1" x1="943.39" y1="40.43" x2="154.12" y2="40.43"/>
  <rect class="cls-4" x="39.94" y="30.98" width="18.64" height="18.9"/>
  <rect class="cls-4" x="1036.91" y="30.98" width="18.64" height="18.9"/>
  <line class="cls-1" x1="49.44" y1="6.28" x2="30.44" y2="6.28"/>
  <line class="cls-1" x1="30.44" y1="29.78" x2="30.44" y2="0"/>
  <line class="cls-1" x1="49.26" y1="29.78" x2="49.26" y2="0"/>
  <line class="cls-1" x1="148.87" y1="6.27" x2="49.26" y2="6.27"/>
  <line class="cls-1" x1="49.27" y1="29.77" x2="49.27" y2="0"/>
  <line class="cls-1" x1="149.1" y1="29.77" x2="149.1" y2="0"/>
  <line class="cls-1" x1="947.98" y1="6.28" x2="149.1" y2="6.28"/>
  <line class="cls-1" x1="948.26" y1="29.88" x2="948.26" y2=".11"/>
  <line class="cls-1" x1="49.27" y1="6.23" x2="43.27" y2="11.23"/>
  <line class="cls-1" x1="49.27" y1="6.3" x2="43.27" y2="1.3"/>
  <line class="cls-1" x1="30.44" y1="6.31" x2="36.44" y2="1.31"/>
  <line class="cls-1" x1="30.44" y1="6.24" x2="36.44" y2="11.24"/>
  <line class="cls-1" x1="49.43" y1="6.31" x2="55.43" y2="1.31"/>
  <line class="cls-1" x1="49.43" y1="6.24" x2="55.43" y2="11.24"/>
  <line class="cls-1" x1="149.1" y1="6.31" x2="155.1" y2="1.31"/>
  <line class="cls-1" x1="149.1" y1="6.24" x2="155.1" y2="11.24"/>
  <line class="cls-1" x1="149.1" y1="6.24" x2="143.1" y2="11.24"/>
  <line class="cls-1" x1="149.1" y1="6.31" x2="143.1" y2="1.31"/>
  <line class="cls-1" x1="948.2" y1="6.24" x2="942.2" y2="11.24"/>
  <line class="cls-1" x1="948.2" y1="6.31" x2="942.2" y2="1.31"/>
  <rect class="cls-2" x="858.88" y="639.19" width="399.68" height="21.05" transform="translate(409 1708.44) rotate(-90)"/>
  <rect class="cls-2" x="1008.72" y="389.35" width="100" height="21.05" transform="translate(658.84 1458.6) rotate(-90)"/>
  <rect class="cls-5" x="1009.26" y="371.12" width="98.91" height="57.33" transform="translate(658.93 1458.5) rotate(-90)"/>
  <line class="cls-1" x1="1068.71" y1="349.88" x2="1098.48" y2="349.88"/>
  <line class="cls-1" x1="1068.74" y1="30.39" x2="1098.51" y2="30.39"/>
  <line class="cls-1" x1="1088.89" y1="349.88" x2="1088.89" y2="30.39"/>
  <line class="cls-1" x1="1088.86" y1="30.98" x2="1093.86" y2="36.98"/>
  <line class="cls-1" x1="1088.93" y1="30.98" x2="1083.93" y2="36.98"/>
  <line class="cls-1" x1="1088.93" y1="349.88" x2="1083.93" y2="343.88"/>
  <line class="cls-1" x1="1088.86" y1="349.88" x2="1093.86" y2="343.88"/>
  <line class="cls-1" x1="1048.77" y1="349.88" x2="1019" y2="349.88"/>
  <line class="cls-1" x1="1048.73" y1="449.88" x2="1018.97" y2="449.88"/>
  <line class="cls-1" x1="1028.58" y1="349.88" x2="1028.58" y2="449.88"/>
  <line class="cls-1" x1="1028.55" y1="349.88" x2="1033.55" y2="355.88"/>
  <line class="cls-1" x1="1028.62" y1="349.88" x2="1023.62" y2="355.88"/>
  <line class="cls-1" x1="1028.62" y1="449.88" x2="1023.62" y2="443.88"/>
  <line class="cls-1" x1="1028.55" y1="449.88" x2="1033.55" y2="443.88"/>
  <rect class="cls-2" x="1060" y="349.88" width="100" height="2" transform="translate(2220 701.76) rotate(-180)"/>
  <path class="cls-1" d="m1060,349.73l-1.28,100.13c5.28.02,55.42-.69,84.07-42.27,16.36-23.75,17.37-48.72,17.21-58.88"/>
</svg>